inDegrees=no
num_controls=7
num_derivatives=13
num_iterations=146
num_multipliers=7
num_parameters=0
num_slacks=7
num_states=26
objective=5.827512
objective_accelerations=0.661164
objective_balance=0.128524
objective_effort=0.424702
objective_height=4.520532
objective_ligament=0.092590
solver_duration=1690.658632
status=Solve_Succeeded
success=true
DataType=double
version=3
OpenSimVersion=4.4-2022-07-23-0e9fedc
endheader
time	/jointset/ground_pelvis/pelvis_tilt/value	/jointset/ground_pelvis/pelvis_tx/value	/jointset/ground_pelvis/pelvis_ty/value	/jointset/hip_l/hip_flexion_l/value	/jointset/hip_l/hip_adduction_l/value	/jointset/hip_l/hip_rotation_l/value	/jointset/back/lumbar_extension/value	/jointset/patellofemoral_l/patellar_flexion_l/value	/jointset/knee_l/knee_flexion_l/value	/jointset/knee_l/knee_adduction_l/value	/jointset/knee_l/knee_rotation_l/value	/jointset/ankle_l/ankle_angle_l/value	/jointset/subtalar_l/subtalar_angle_l/value	/jointset/ground_pelvis/pelvis_tilt/speed	/jointset/ground_pelvis/pelvis_tx/speed	/jointset/ground_pelvis/pelvis_ty/speed	/jointset/hip_l/hip_flexion_l/speed	/jointset/hip_l/hip_adduction_l/speed	/jointset/hip_l/hip_rotation_l/speed	/jointset/back/lumbar_extension/speed	/jointset/patellofemoral_l/patellar_flexion_l/speed	/jointset/knee_l/knee_flexion_l/speed	/jointset/knee_l/knee_adduction_l/speed	/jointset/knee_l/knee_rotation_l/speed	/jointset/ankle_l/ankle_angle_l/speed	/jointset/subtalar_l/subtalar_angle_l/speed	/forceset/tau_hip_flexion_l	/forceset/tau_hip_adduction_l	/forceset/tau_hip_rotation_l	/forceset/tau_knee_flexion_l	/forceset/tau_ankle_angle_l	/forceset/tau_subtalar_angle_l	/forceset/tau_lumbar_extension	lambda_cid13_p0	lambda_cid13_p1	lambda_cid13_p2	lambda_cid13_p3	lambda_cid13_p4	lambda_cid13_p5	lambda_cid14_p0	/jointset/ground_pelvis/pelvis_tilt/accel	/jointset/ground_pelvis/pelvis_tx/accel	/jointset/ground_pelvis/pelvis_ty/accel	/jointset/hip_l/hip_flexion_l/accel	/jointset/hip_l/hip_adduction_l/accel	/jointset/hip_l/hip_rotation_l/accel	/jointset/back/lumbar_extension/accel	/jointset/patellofemoral_l/patellar_flexion_l/accel	/jointset/knee_l/knee_flexion_l/accel	/jointset/knee_l/knee_adduction_l/accel	/jointset/knee_l/knee_rotation_l/accel	/jointset/ankle_l/ankle_angle_l/accel	/jointset/subtalar_l/subtalar_angle_l/accel	gamma_cid13_p0	gamma_cid13_p1	gamma_cid13_p2	gamma_cid13_p3	gamma_cid13_p4	gamma_cid13_p5	gamma_cid14_p0
1.5	-0.4261847777752633	-0.0426969599312455	0.763949793506004	1.241884989409535	-0.306075708588324	-0.02094882187417479	-0.3462779976909227	0.754333305537859	0.7543333055375741	-0.1681600574370595	0.173308007240803	0.1133769558502346	-0.03044737744652658	0.6666659043975235	0.1881533950077597	0.4914390485579506	-2.264971216111224	0.009268766195879942	-0.6699979419421196	0.5675118599331279	-1.91200877303412	-1.912008773034741	0.01138925993215293	-0.001777303162315631	-0.4264614366426316	-0.05464937714859545	-0.2458570430582831	0.0367013033864395	-0.02094386554495983	-0.1978635033750785	0.07629321746717956	0.03831325502463579	0.2237513342877129	-13.96094084170816	-16.96219701457606	5.462638472570347	-0.5402990374744479	-611.0740607048721	-50.06711333742754	-24.4378103483781	0.6253890648256791	0.5984992493897114	-0.3112113805323458	-1.587905117691141	0.618913685384482	-0.391889394594692	1.834986056047422	-1.294666142935755	-1.294666142935875	-0.03690499173330974	0.009444413271492116	-0.3305962978944435	0.6138156208682647	3.512707487829107e-07	8.754023112510607e-07	-1.774999468203928e-06	-1.256403765321912e-07	4.041316499592242e-07	2.709447352992682e-07	3.548985446616886e-07
1.51	-0.419487156923337	-0.04078564155958828	0.768847671270142	1.219157913811956	-0.305953293258273	-0.0276665401391308	-0.34051257731493	0.7351505382550696	0.7351505382545842	-0.168051402942186	0.1732911849418412	0.1090959817871575	-0.03096464772236931	0.6727659330246102	0.1940893397014005	0.4880350634198827	-2.280124795536936	0.01523159429667274	-0.6734591335830231	0.5854935898333817	-1.924270691237391	-1.924270691237352	0.0103337693520802	-0.001590013360088956	-0.4296582548369368	-0.04878679572735256	-0.2380115768627186	0.03590894406180938	-0.02089405933172242	-0.1964653029010987	0.07836505239091408	0.03786411206518659	0.2176094531385441	-13.06814562163493	-17.02694100342938	5.591164247608048	-0.7455274009091033	-606.5604191938405	-50.43226681776297	-25.58248971803096	0.588503050215358	0.5879737102616248	-0.3701147563416022	-1.431164325764465	0.5877274364264842	-0.3098880917013834	1.767972644286803	-1.15093402671937	-1.1509340266192	-0.1409747556964417	0.02334376940194482	-0.3029442004319508	0.5752239596247338	3.790716084493003e-07	9.746057378235753e-07	-1.876106875629518e-06	-1.332119791518347e-07	4.457968322540153e-07	3.337220176540069e-07	3.787611387476794e-07
1.52	-0.4127312971274829	-0.03881559741480971	0.7737084846477172	1.196288886425928	-0.3057706976343793	-0.03441620112899536	-0.3345696984025006	0.7158533559167578	0.715853355916017	-0.1679535240861887	0.1732762300418433	0.1047852956181054	-0.03142274327262427	0.6783136931942778	0.1998985496320271	0.4840261712453023	-2.293361573792765	0.02130482495735611	-0.6763864869384383	0.6030035672244354	-1.93489178414857	-1.934891784147866	0.009234132190007282	-0.0014038233296725	-0.4324038578406321	-0.04281443203120906	-0.2301661106671498	0.03511658473754792	-0.02084425312136233	-0.1950671024267397	0.08043688731477948	0.03741496910616791	0.2114675719892635	-12.17701549777795	-17.09532295920303	5.724759905662273	-0.97997225589965	-602.0999199648459	-50.87877144038578	-26.72366393165008	0.5149353733429325	0.5731522967857536	-0.4321927878350205	-1.204544883714517	0.640994197362957	-0.2851217374968865	1.740635554207938	-0.9665010845168029	-0.9665010845165081	-0.04573430813321346	0.009224458909417615	-0.2403532597740037	0.6357720758480213	3.962910998514821e-07	1.08724923952206e-06	-1.935627198921197e-06	-1.292260366989087e-07	4.76058251775173e-07	3.999356414642629e-07	3.976775265322395e-07
1.53	-0.4059227033416597	-0.03678815461482064	0.7785262306427074	1.173297063185942	-0.3055269975022664	-0.04119266086372596	-0.3284543657891967	0.6964582417325014	0.696458241731866	-0.167866963467368	0.173263330362484	0.1004494028956492	-0.03182075386015983	0.6833049282484354	0.2055614645843653	0.4794253574366431	-2.30466652958747	0.02744641518884092	-0.6788121272378452	0.6199634641470499	-1.94384521676449	-1.943845216763991	0.008069071504761058	-0.001182224092976009	-0.4346965370470825	-0.03677594848320645	-0.2221080330275682	0.034081867251397	-0.02079325915974234	-0.1939478238822586	0.08275979360378316	0.03676008488588694	0.2051161819941331	-11.21591008332291	-17.08414006551911	5.842855295894042	-1.19422129989182	-597.6829735317314	-51.22765845365858	-27.86086944878635	0.4762431294007508	0.5585583736298987	-0.4885754419113118	-1.042932248542426	0.6025617734546039	-0.2068944952712506	1.658743069944801	-0.8169726880842826	-0.8169726881142364	-0.1531218763434367	0.02812375149924087	-0.2119853881446077	0.5896723425423805	4.022678874729431e-07	1.214172821041887e-06	-1.950961245320595e-06	-1.129602026063777e-07	4.942031733493451e-07	4.698003780710062e-07	4.113385701215297e-07
1.54	-0.3990671920937595	-0.0347049432094702	0.783295058546702	1.150202298123704	-0.3052215174003141	-0.04799049886527613	-0.3221724189449635	0.6769821515544436	0.6769821515540411	-0.167792299440937	0.1732525458946007	0.0960929313537227	-0.03215802244256078	0.6876971856205576	0.2110522707042994	0.4742425530460851	-2.313949938229875	0.03366081891682064	-0.6806621403016367	0.6363264134158241	-1.951086982898654	-1.951086982898361	0.0068548137146348	-0.0009807810382884293	-0.4365196217361534	-0.03066603100456342	-0.2140499553882496	0.03304714976537888	-0.02074226519815883	-0.1928285453378227	0.08508269989283594	0.03610520066580217	0.1987647919986975	-10.25752164415477	-17.07670131094579	5.966369151787779	-1.431882989031306	-593.3327048347907	-51.66407290512659	-28.98470683480197	0.3951398369367111	0.5387305303038076	-0.5485909042149393	-0.80023545325468	0.6555568966620605	-0.1699962903737563	1.621246023440349	-0.6241677881653612	-0.6241677881652536	-0.05557372910906122	0.005193222507613071	-0.1464343562995897	0.6500588619757716	4.059637071277945e-07	1.341083959890215e-06	-1.9662293568016e-06	-9.459467486525271e-08	5.082866355104288e-07	5.402967927704001e-07	4.247329987972865e-07
